Coordinates
version=1
nRows=20
nColumns=32
inDegrees=yes

Units are S.I. units (second, meters, Newtons, ...)
If the header above contains a line with 'inDegrees', this indicates whether rotational values are in degrees (yes) or radians (no).

endheader
time	pelvis_tilt	pelvis_list	pelvis_rotation	pelvis_tx	pelvis_ty	pelvis_tz	hip_flexion_r	hip_adduction_r	hip_rotation_r	knee_angle_r	knee_adduction_r	med_cond_adduction_r	lat_cond_adduction_r	patella_r_constrained_knee_angle	hip_flexion_l	hip_adduction_l	hip_rotation_l	knee_angle_l	knee_adduction_l	med_cond_adduction_l	lat_cond_adduction_l	patella_l_constrained_knee_angle	lumbar_extension	lumbar_bending	lumbar_rotation	ankle_angle_r	subtalar_angle_r	mtp_angle_r	ankle_angle_l	subtalar_angle_l	mtp_angle_l
      1.03500000	      3.36397384	     -4.76721921	      4.99627686	     -0.20055992	      0.79892952	     -0.21018127	     15.93630996	      8.53572222	     -4.06015275	    -28.18964464	     -0.20554392	      0.00000000	      0.00000000	     -0.49200211	      3.07000739	     -4.45742946	     -2.02389147	    -61.30961449	     -3.45847514	      0.00000000	      0.00000000	     -1.07005464	    -13.05418635	      7.13622480	     -4.63409617	      3.76318208	     -9.01498882	      0.00000000	    -21.03418178	    -11.81071863	      0.00000000
      1.04000000	      3.25987883	     -4.80546729	      4.79840467	     -0.19431052	      0.79991539	     -0.20947792	     15.24117909	      8.66741953	     -3.98950143	    -27.64393201	     -0.18661182	      0.00000000	      0.00000000	     -0.48247763	      4.40358011	     -4.46943469	     -2.62162280	    -62.49593903	     -3.89627102	      0.00000000	      0.00000000	     -1.09075991	    -13.01204534	      7.12799273	     -4.31328953	      4.02546269	     -8.79019723	     -0.00000000	    -20.33339659	    -12.47384989	     -0.00000000
      1.04500000	      3.17057799	     -4.87154714	      4.67493947	     -0.18801235	      0.80089835	     -0.20882448	     14.54319852	      8.84956575	     -4.24179009	    -27.10300130	     -0.37439999	     -0.00000000	     -0.00000000	     -0.47303661	      5.73710508	     -4.53654339	     -3.15635475	    -63.59819439	     -4.31457663	     -0.00000000	     -0.00000000	     -1.10999789	    -12.96678853	      7.16713799	     -4.05025002	      4.38444104	     -8.16105823	     -0.00000000	    -19.51881223	    -13.06724330	     -0.00000000
      1.05000000	      3.06408433	     -4.84492245	      4.38943633	     -0.18179950	      0.80191594	     -0.20806821	     13.82436508	      8.92795249	     -4.03821494	    -26.53322068	     -0.34379145	      0.00000000	      0.00000000	     -0.46309206	      7.02558141	     -4.48349738	     -3.77475138	    -64.53077758	     -4.69848287	     -0.00000000	      0.00000000	     -1.12627454	    -12.93759926	      7.08084553	     -3.64265283	      4.65697514	     -7.90607187	     -0.00000000	    -18.67698550	    -13.56012241	      0.00000000
      1.05500000	      2.97467588	     -4.80127638	      4.13240117	     -0.17558779	      0.80294573	     -0.20734925	     13.08943151	      8.99243533	     -3.96867942	    -25.95934465	     -0.40358186	     -0.00000000	     -0.00000000	     -0.45307604	      8.28395661	     -4.42044931	     -4.36105067	    -65.34678315	     -5.06477207	     -0.00000000	     -0.00000000	     -1.14051652	    -12.91851866	      6.97485650	     -3.27225000	      4.94005405	     -7.50684481	      0.00000000	    -17.75406179	    -13.99644477	      0.00000000
      1.06000000	      2.89175659	     -4.74485475	      3.91000895	     -0.16936824	      0.80398754	     -0.20666555	     12.33415732	      9.03316487	     -3.96621367	    -25.34791594	     -0.46935303	      0.00000000	      0.00000000	     -0.44240459	      9.53325381	     -4.34780150	     -4.87125711	    -66.06009508	     -5.38614212	     -0.00000000	     -0.00000000	     -1.15296616	    -12.90845737	      6.85897457	     -2.94582860	      5.18810438	     -7.10783575	      0.00000000	    -16.78027177	    -14.30377976	     -0.00000000
      1.06500000	      2.81558548	     -4.67021709	      3.70931512	     -0.16318072	      0.80502363	     -0.20602106	     11.56048803	      9.04997961	     -3.96446102	    -24.71081161	     -0.53773901	      0.00000000	      0.00000000	     -0.43128502	     10.76159866	     -4.25045055	     -5.28350184	    -66.66408208	     -5.63714537	      0.00000000	      0.00000000	     -1.16350773	    -12.90284493	      6.72403398	     -2.66854959	      5.40182428	     -6.71997125	     -0.00000000	    -15.76331499	    -14.52158824	      0.00000000
      1.07000000	      2.74414608	     -4.55369677	      3.44924159	     -0.15700736	      0.80605738	     -0.20534244	     10.78715843	      9.01257164	     -3.86101937	    -24.09172551	     -0.55336896	      0.00000000	      0.00000000	     -0.42047993	     11.94473480	     -4.12548104	     -5.73712375	    -67.12702201	     -5.85337385	      0.00000000	      0.00000000	     -1.17158755	    -12.90686166	      6.52967460	     -2.33953754	      5.61355466	     -6.41346707	     -0.00000000	    -14.71468207	    -14.62579133	     -0.00000000
      1.07500000	      2.68557280	     -4.41220337	      3.21346025	     -0.15085145	      0.80707364	     -0.20471905	     10.01247306	      8.93517751	     -3.83474696	    -23.49604195	     -0.59527025	      0.00000000	      0.00000000	     -0.41008329	     13.09207379	     -3.95986132	     -6.08995138	    -67.47039141	     -6.00454992	     -0.00000000	     -0.00000000	     -1.17758048	    -12.92868351	      6.31748132	     -2.08412933	      5.85660680	     -5.97035548	      0.00000000	    -13.70649073	    -14.65374990	      0.00000000
      1.08000000	      2.62700140	     -4.26774842	      2.94780288	     -0.14468979	      0.80807226	     -0.20407347	      9.21939094	      8.85178036	     -3.73889588	    -22.86684881	     -0.60652754	     -0.00000000	     -0.00000000	     -0.39910180	     14.20867008	     -3.80913096	     -6.45843116	    -67.70120437	     -6.12572850	     -0.00000000	     -0.00000000	     -1.18160892	    -12.94809043	      6.09970965	     -1.76348375	      6.04661460	     -5.61316707	     -0.00000000	    -12.65663998	    -14.54447081	     -0.00000000
      1.08500000	      2.59080190	     -4.03443526	      2.74948575	     -0.13857865	      0.80905392	     -0.20359123	      8.48966535	      8.62780658	     -3.88868502	    -22.40171310	     -0.67067668	     -0.00000000	     -0.00000000	     -0.39098365	     15.27592987	     -3.50806691	     -6.69058365	    -67.80876826	     -6.20141506	     -0.00000000	     -0.00000000	     -1.18348627	    -12.99546430	      5.79526828	     -1.56804387	      6.37712028	     -4.89305400	      0.00000000	    -11.64836055	    -14.38779923	     -0.00000000
      1.09000000	      2.56784323	     -3.94334911	      2.60366841	     -0.13240821	      0.81000999	     -0.20306127	      7.61832191	      8.57909897	     -3.85008253	    -21.64790070	     -0.63435052	      0.00000000	     -0.00000000	     -0.37782714	     16.33307064	     -3.41172051	     -6.79444999	    -67.83832547	     -6.18308030	      0.00000000	      0.00000000	     -1.18400214	    -13.03094594	      5.65628386	     -1.42152600	      6.40192779	     -4.82934316	     -0.00000000	    -10.57692347	    -14.03065663	      0.00000000
      1.09500000	      2.50011158	     -3.73315001	      2.27485272	     -0.12633876	      0.81087093	     -0.20245852	      6.88942375	      8.38968897	     -3.66614998	    -21.11702938	     -0.60803965	     -0.00000000	     -0.00000000	     -0.36856169	     17.35473117	     -3.20428115	     -7.01221352	    -67.71646975	     -6.09530688	      0.00000000	      0.00000000	     -1.18187536	    -13.05095827	      5.36459045	     -1.13107626	      6.60181444	     -4.45342155	     -0.00000000	     -9.59797352	    -13.69732459	      0.00000000
      1.10000000	      2.44414236	     -3.52092131	      1.94036796	     -0.12026221	      0.81169478	     -0.20183995	      6.15795284	      8.18359033	     -3.45557901	    -20.59968339	     -0.54973928	     -0.00000000	     -0.00000000	     -0.35953230	     18.32897816	     -3.01632845	     -7.20453831	    -67.46846721	     -5.96049707	      0.00000000	     -0.00000000	     -1.17754689	    -13.07610453	      5.05531658	     -0.85777842	      6.75549962	     -4.13068297	      0.00000000	     -8.67766323	    -13.38079641	      0.00000000
      1.10500000	      2.44647593	     -3.10741937	      1.76853546	     -0.11415969	      0.81242251	     -0.20171987	      5.67342172	      7.63516936	     -4.31930458	    -20.71907695	     -0.77652572	     -0.00000000	     -0.00000000	     -0.36161611	     19.17539298	     -2.45131817	     -7.07165417	    -67.06107889	     -5.68686228	      0.00000000	      0.00000000	     -1.17043663	    -13.14792505	      4.62020523	     -0.84499531	      7.76404602	     -2.05649473	      0.00000000	     -7.88308811	    -13.31794661	      0.00000000
      1.11000000	      2.41788118	     -3.10953467	      1.45089186	     -0.10807350	      0.81320561	     -0.20093724	      4.64543608	      7.70516630	     -3.41069377	    -19.61438612	     -0.44184480	     -0.00000000	     -0.00000000	     -0.34233562	     20.11798948	     -2.57457650	     -7.33363775	    -66.69910211	     -5.67147936	      0.00000000	      0.00000000	     -1.16411894	    -13.19530412	      4.54627833	     -0.49964937	      7.19508978	     -3.22832762	      0.00000000	     -6.81941573	    -12.25955916	      0.00000000
      1.11500000	      2.43382958	     -2.95805274	      1.13458343	     -0.10197873	      0.81388049	     -0.20042034	      3.84321556	      7.52330639	     -3.19908822	    -19.08352787	     -0.32621204	     -0.00000000	     -0.00000000	     -0.33307039	     20.91524106	     -2.49248643	     -7.44982703	    -66.15544720	     -5.44704407	      0.00000000	      0.00000000	     -1.15463037	    -13.29200821	      4.35095072	     -0.33557637	      7.25756579	     -3.06590995	      0.00000000	     -5.97418445	    -11.86593271	      0.00000000
      1.12000000	      2.43279529	     -2.64271129	      0.97434565	     -0.09588912	      0.81449017	     -0.20019533	      3.19260728	      7.09295912	     -3.50178545	    -18.81887388	     -0.29541518	      0.00000000	      0.00000000	     -0.32845131	     21.69466714	     -2.05828874	     -7.32427014	    -65.46482933	     -5.27242234	     -0.00000000	     -0.00000000	     -1.14257682	    -13.34226814	      3.98399519	     -0.25325575	      7.69725397	     -2.19424562	      0.00000000	     -5.20331746	    -11.07274360	     -0.00000000
      1.12500000	      2.41073678	     -2.50972016	      0.71413786	     -0.08984695	      0.81494889	     -0.19976059	      2.47178583	      6.92054426	     -3.34966571	    -18.34306389	     -0.20754795	     -0.00000000	     -0.00000000	     -0.32014686	     22.48503482	     -1.98077793	     -7.19535495	    -64.74458945	     -4.89826278	     -0.00000000	     -0.00000000	     -1.13000626	    -13.39004562	      3.81477400	     -0.11368764	      7.78834637	     -1.93415035	     -0.00000000	     -4.48454049	    -10.56591915	     -0.00000000
      1.13000000	      2.39036332	     -2.38008419	      0.35945481	     -0.08384033	      0.81537945	     -0.19928114	      1.76098964	      6.73365209	     -2.97654740	    -17.89071470	     -0.05974960	     -0.00000000	     -0.00000000	     -0.31225188	     23.21646205	     -1.91045352	     -7.15926976	    -63.89965129	     -4.58187188	      0.00000000	      0.00000000	     -1.11525931	    -13.44164140	      3.65519881	      0.12173767	      7.81743793	     -1.78167473	     -0.00000000	     -3.84058233	    -10.06001284	     -0.00000000
